<svg xmlns="http://www.w3.org/2000/svg" xmlns:xlink="http://www.w3.org/1999/xlink" version="1.1" x="0px" y="0px" width="223px" height="34px" viewBox="0 0 223 34" xml:space="preserve" class="style0"><style>.style0{enable-background:	new 0 0 223 34;}.style1{fill-rule:	evenodd;clip-rule:	evenodd;fill:	#FFFFFF;}.style2{fill:	#42413E;}.style3{fill-rule:	evenodd;clip-rule:	evenodd;fill:	#4D8954;}.style4{fill-rule:	evenodd;clip-rule:	evenodd;fill:	#42413E;}.style5{fill-rule:	evenodd;clip-rule:	evenodd;fill:	#A0A09E;}</style><g><rect x="7.4" y="8.5" width="29" height="20" class="style1"/><path d="M35.9 9v19h-28V9H35.9 M36.9 8h-30v21h30V8L36.9 8z" class="style2"/></g><g><g><polygon points="1.4,12.3 6.4,8.9 6.4,26.7 1.4,30" class="style1"/><path d="M5.9 9.9v16.5l-4 2.7V12.5L5.9 9.9 M6.9 8l-6 4v19l6-4V8L6.9 8z" class="style2"/></g><g><polygon points="6.9,27 0.9,31 0.9,13 6.9,9" class="style1"/></g></g><g><rect x="1.4" y="12.5" width="29" height="20" class="style3"/><path d="M29.9 13v19h-28V13H29.9 M30.9 12h-30v21h30V12L30.9 12z" class="style2"/></g><path d="M11.9 12c0 0 0-3 0-4c0-1.1 0-3 4-3s4 1.9 4 3c0 1 0 4 0 4h1 c0 0 0-3.8 0-5c0-1-1-3-5-3s-5 2-5 3c0 1.3 0 5 0 5H11.9z" class="style4"/><path d="M17.9 8c0 0 0-1 0-2c0-1.1 0-3 4-3s4 1.9 4 3c0 1 0 2 0 2h1 c0 0 0-1.8 0-3c0-1-1-3-5-3s-5 2-5 3c0 1.3 0 3 0 3H17.9z" class="style4"/><g><g><polygon points="36.9,29 30.9,33 30.9,12 36.9,9" class="style3"/></g><g><polygon points="30.9,13 36.9,9 36.9,8 30.9,12" class="style4"/></g><g><polygon points="30.9,33 36.9,29 36.9,28 30.9,32" class="style4"/></g><rect x="35.9" y="9" width="1" height="20" class="style4"/></g><g><polygon points="43.4,8.5 73.4,8.5 73.4,26.5 43.4,28.5" class="style1"/><path d="M72.9 9v17.1l-29 1.9V9H72.9 M73.9 8h-31v21l31-2V8L73.9 8z" class="style2"/></g><g><polygon points="38.4,14.1 42.4,9.4 42.4,26.7 38.4,29.9" class="style1"/><path d="M41.9 10.7v15.7l-3 2.4V14.3L41.9 10.7 M42.9 8l-5 6v17l5-4V8L42.9 8z" class="style2"/></g><g><polygon points="43.9,26 38.9,30 38.9,14 43.9,8" class="style1"/></g><rect x="42.9" y="8" width="1" height="6" class="style5"/><g><rect x="38.4" y="14.5" width="30" height="18" class="style3"/><path d="M67.9 15v17h-29V15H67.9 M68.9 14h-31v19h31V14L68.9 14z" class="style2"/></g><path d="M49.4 14c0 0 0-3 0-4c0-1.1 0-3 4-3s4 1.9 4 3c0 1 0 4 0 4h1 c0 0 0-3.8 0-5c0-1-1-3-5-3s-5 2-5 3c0 1.3 0 5 0 5H49.4z" class="style4"/><path d="M54.4 8c0 0 0-1 0-2c0-1.1 0-3 4-3s4 1.9 4 3c0 1 0 2 0 2h1 c0 0 0-1.8 0-3c0-1-1-3-5-3s-5 2-5 3c0 1.3 0 3 0 3H54.4z" class="style4"/><g><g><polygon points="73.9,27 68.9,33 68.9,14 73.9,8" class="style3"/></g><g><polygon points="68.9,14 73.9,8 72.9,8 67.9,14" class="style4"/></g><g><polygon points="68.9,33 73.9,27 73.9,26 68.9,32" class="style4"/></g><polygon points="73.9,27 72.9,28 72.9,9 73.9,8" class="style4"/></g><rect x="42.9" y="8" width="2" height="1" class="style4"/><polygon points="37.9,14 38.9,14 43.9,8 42.9,8" class="style4"/><g><polygon points="79.4,8.5 110.4,8.5 110.4,24.6 79.4,28.4" class="style1"/><path d="M109.9 9v15.1l-30 3.8V9H109.9 M110.9 8h-32v21l32-4V8L110.9 8z" class="style2"/></g><g><g><polygon points="75.4,17.1 78.4,10.3 78.4,26.7 75.4,29.7" class="style1"/><path d="M77.9 12.7v13.8l-2 2V17.2L77.9 12.7 M78.9 8l-4 9v14l4-4V8L78.9 8z" class="style2"/></g><g><polygon points="79.9,27 75.9,31 75.9,17 79.9,8" class="style1"/></g></g><polygon points="79.9,17 80.9,17 79.9,9 78.9,9" class="style5"/><polygon points="108.9,17 107.9,17 108.9,9 109.9,9" class="style5"/><g><rect x="75.4" y="17.5" width="31" height="15" class="style3"/><path d="M105.9 18v14h-30V18H105.9 M106.9 17h-32v16h32V17L106.9 17z" class="style2"/></g><path d="M86.9 18c0 0 0-2 0-3c0-1.1 0-3 4-3s4 1.9 4 3c0 1 0 3 0 3h1 c0 0 0-2.8 0-4c0-1-1-3-5-3s-5 2-5 3c0 1.3 0 4 0 4H86.9z" class="style4"/><path d="M90.9 8c0 0 0-1 0-2c0-1.1 0-3 4-3s4 1.9 4 3c0 1 0 2 0 2h1 c0 0 0-1.8 0-3c0-1-1-3-5-3s-5 2-5 3c0 1.3 0 3 0 3H90.9z" class="style4"/><g><g><polygon points="110.9,25 106.9,33 106.9,17 110.9,8" class="style3"/></g><g><polygon points="106.9,17 110.9,8 109.9,8 105.9,17" class="style4"/></g><g><polygon points="106.9,33 110.9,25 109.9,25 105.9,33" class="style4"/></g><polygon points="110.9,25 109.9,26 109.9,9 110.9,8" class="style4"/></g><rect x="78.9" y="8" width="3" height="1" class="style4"/><polygon points="75.9,17 74.9,17 78.9,8 79.9,8" class="style4"/><g><polygon points="115.4,8.5 147.4,8.5 147.4,24.6 115.4,28.4" class="style1"/><path d="M146.9 9v15.1l-31 3.8V9H146.9 M147.9 8h-33v21l33-4V8L147.9 8z" class="style2"/></g><rect x="145.9" y="18" width="2" height="10" class="style1"/><g><g><polygon points="112.4,23 114.4,13 114.4,26.8 112.4,29.4" class="style1"/><path d="M113.9 18.1v8.5l-1 1.3v-4.9L113.9 18.1 M114.9 8l-3 15v8l3-4V8L114.9 8z" class="style2"/></g><g><polygon points="115.9,27 112.9,31 112.9,23 115.9,8" class="style1"/></g></g><g><polygon points="117.9,18 118.9,18 115.9,9 114.9,9" class="style5"/><polygon points="142.9,18 141.9,18 145.9,9 146.9,9" class="style5"/><rect x="117.9" y="18" width="25" height="1" class="style5"/><polygon points="117.9,19 118.9,19 116.9,23 115.9,23" class="style5"/><polygon points="142.9,19 141.9,19 142.9,23 143.9,23" class="style5"/></g><g><rect x="112.4" y="23.5" width="32" height="9" class="style3"/><path d="M143.9 24v8h-31v-8H143.9 M144.9 23h-33v10h33V23L144.9 23z" class="style2"/></g><path d="M124.4 24c0 0 0-1 0-2c0-1.1 0-3 4-3s4 1.9 4 3c0 1 0 2 0 2h1 c0 0 0-1.8 0-3c0-1-1-3-5-3s-5 2-5 3c0 1.3 0 3 0 3H124.4z" class="style4"/><path d="M127.4 9c0 0 0-1 0-2c0-1.1 0-3 4-3s4 1.9 4 3c0 1 0 2 0 2h1 c0 0 0-1.8 0-3c0-1-1-3-5-3s-5 2-5 3c0 1.3 0 3 0 3H127.4z" class="style4"/><g><g><polygon points="147.9,19 144.9,33 144.9,23 147.9,8" class="style3"/></g><g><polygon points="144.9,23 147.9,8 146.9,8 143.9,23" class="style4"/></g><g><polygon points="144.9,33 147.9,19 146.9,19 143.9,33" class="style4"/></g><polygon points="147.9,19 146.9,20 146.9,9 147.9,8" class="style4"/></g><rect x="114.9" y="8" width="4" height="1" class="style4"/><polygon points="111.9,23 112.9,23 115.9,8 114.9,8" class="style4"/><g><rect x="151.4" y="8.5" width="33" height="20" class="style1"/><path d="M183.9 9v19h-32V9H183.9 M184.9 8h-34v21h34V8L184.9 8z" class="style2"/></g><rect x="182.9" y="18" width="2" height="12" class="style1"/><g><g><polygon points="149.4,27 150.4,17.5 150.4,26.8 149.4,28.8" class="style1"/><polygon points="150.9,8 148.9,27 148.9,31 150.9,26.9 150.9,8" class="style2"/></g><g><polygon points="151.9,27 149.9,31 149.9,27 151.9,8" class="style1"/></g></g><g><g><polygon points="153.9,14 154.9,14 152.9,9 151.9,9" class="style5"/><polygon points="180.9,14 179.9,14 182.9,9 183.9,9" class="style5"/><rect x="153.9" y="14" width="27" height="1" class="style5"/><rect x="153.9" y="15" width="1" height="8" class="style5"/><polygon points="179.9,23 178.9,23 179.9,15 180.9,15" class="style5"/></g><polygon points="149.9,27 150.9,27 154.9,24 153.9,24" class="style5"/><polygon points="180.9,27 181.9,27 179.9,24 178.9,24" class="style5"/><rect x="153.9" y="23" width="26" height="1" class="style5"/></g><g><rect x="149.4" y="27.5" width="33" height="5" class="style3"/><path d="M181.9 28v4h-32v-4H181.9 M182.9 27h-34v6h34V27L182.9 27z" class="style2"/></g><path d="M161.9 28c0 0 0 0 0-1c0-1.1 0-3 4-3s4 1.9 4 3c0 1 0 1 0 1h1 c0 0 0-0.8 0-2c0-1-1-3-5-3s-5 2-5 3c0 1.3 0 2 0 2H161.9z" class="style4"/><path d="M163.9 9c0 0 0-1 0-2c0-1.1 0-3 4-3s4 1.9 4 3c0 1 0 2 0 2h1 c0 0 0-1.8 0-3c0-1-1-3-5-3s-5 2-5 3c0 1.3 0 3 0 3H163.9z" class="style4"/><g><g><polygon points="184.9,19 182.9,33 182.9,24 184.9,8" class="style3"/></g><g><polygon points="182.9,27 184.9,8 183.9,8 181.9,27" class="style4"/></g><g><polygon points="182.9,33 184.9,19 183.9,19 181.9,33" class="style4"/></g><polygon points="184.9,19 183.9,20 183.9,9 184.9,8" class="style4"/></g><rect x="150.9" y="8" width="5" height="1" class="style4"/><g><rect x="186.4" y="8.5" width="35" height="24" class="style1"/><path d="M220.9 9v23h-34V9H220.9 M221.9 8h-36v25h36V8L221.9 8z" class="style2"/></g><g><g><polygon points="188.9,27 186.9,31 186.9,27 188.9,8" class="style1"/></g></g><g><g><polygon points="189.9,12 190.9,12 186.9,8 185.9,8" class="style5"/><polygon points="217.9,12 216.9,12 220.9,8 221.9,8" class="style5"/><rect x="189.9" y="12" width="28" height="1" class="style5"/><rect x="189.9" y="13" width="1" height="14" class="style5"/><rect x="216.9" y="13" width="1" height="13" class="style5"/></g><polygon points="185.9,30 186.9,30 190.9,27 189.9,27" class="style5"/><polygon points="220.9,30 221.9,30 217.9,27 216.9,27" class="style5"/><rect x="190.9" y="26" width="27" height="1" class="style5"/></g><g><rect x="186.4" y="30.5" width="35" height="2" class="style3"/><path d="M220.9 31v1h-34v-1H220.9 M221.9 30h-36v3h36V30L221.9 30z" class="style2"/></g><path d="M199.9 31C199.9 31 199.9 32 199.9 31c0-1.1 0-3 4-3s4 1.9 4 3 c0 1 0 0 0 0h1c0 0 0 0.3 0-1c0-1-1-3-5-3s-5 2-5 3c0 1.3 0 1 0 1H199.9z" class="style4"/><path d="M199.9 9c0 0 0-1 0-2c0-1.1 0-3 4-3s4 1.9 4 3c0 1 0 2 0 2h1 c0 0 0-1.8 0-3c0-1-1-3-5-3s-5 2-5 3c0 1.3 0 3 0 3H199.9z" class="style4"/><rect x="187.9" y="8" width="5" height="1" class="style4"/><g><path d="M220.9 9v21h-34V9H220.9 M221.9 8h-36v23h36V8L221.9 8z" class="style2"/></g></svg>